<svg xmlns="http://www.w3.org/2000/svg" viewBox="0 0 520 520" width="520" height="520">
  <defs>
    <linearGradient id="sun" x1="0" y1="0" x2="0" y2="1">
      <stop offset="0" stop-color="#FFD54A"/>
      <stop offset="1" stop-color="#FF7A1A"/>
    </linearGradient>
    <linearGradient id="leafA" x1="0" y1="0" x2="1" y2="1">
      <stop offset="0" stop-color="#3ECF6A"/>
      <stop offset="1" stop-color="#0B7A3E"/>
    </linearGradient>
    <linearGradient id="leafB" x1="1" y1="0" x2="0" y2="1">
      <stop offset="0" stop-color="#5BE08A"/>
      <stop offset="1" stop-color="#139A4B"/>
    </linearGradient>
  </defs>
  <!-- fond rond crème -->
  <circle cx="260" cy="260" r="250" fill="#FFF7E6"/>
  <!-- soleil -->
  <circle cx="260" cy="215" r="118" fill="url(#sun)"/>
  <!-- rayons -->
  <g stroke="#FF7A1A" stroke-width="14" stroke-linecap="round">
    <line x1="260" y1="55" x2="260" y2="80"/>
    <line x1="150" y1="100" x2="168" y2="118"/>
    <line x1="370" y1="100" x2="352" y2="118"/>
    <line x1="105" y1="200" x2="130" y2="205"/>
    <line x1="415" y1="200" x2="390" y2="205"/>
  </g>
  <!-- lagon bleu -->
  <path d="M60 330 Q130 300 200 330 T340 330 T460 330 L460 360 Q390 390 320 360 T180 360 T60 360 Z" fill="#19A7D6" opacity="0.9"/>
  <!-- feuilles -->
  <path d="M258 420 C180 400 120 340 125 250 C215 255 270 320 258 420 Z" fill="url(#leafA)"/>
  <path d="M258 420 C190 395 150 330 160 265" fill="none" stroke="#FFF7E6" stroke-width="7" stroke-linecap="round"/>
  <path d="M268 420 C346 400 406 340 401 250 C311 255 256 320 268 420 Z" fill="url(#leafB)"/>
  <path d="M268 420 C336 395 376 330 366 265" fill="none" stroke="#FFF7E6" stroke-width="7" stroke-linecap="round"/>
  <!-- brin d'herbe coupé : lame de tondeuse stylisée -->
  <g stroke="#0B6B3A" stroke-width="12" stroke-linecap="round">
    <line x1="170" y1="455" x2="350" y2="455"/>
    <line x1="195" y1="430" x2="195" y2="455"/>
    <line x1="225" y1="438" x2="225" y2="455"/>
    <line x1="295" y1="438" x2="295" y2="455"/>
    <line x1="325" y1="430" x2="325" y2="455"/>
  </g>
</svg>
